<?xml version="1.0" standalone="no"?>
<!DOCTYPE svg PUBLIC "-//W3C//DTD SVG 20010904//EN"
 "http://www.w3.org/TR/2001/REC-SVG-20010904/DTD/svg10.dtd">
<svg version="1.0" xmlns="http://www.w3.org/2000/svg"
 width="1120.000000pt" height="490.000000pt" viewBox="0 0 1120.000000 490.000000"
 preserveAspectRatio="xMidYMid meet">
<metadata>
Created by potrace 1.16, written by Peter Selinger 2001-2019
</metadata>
<g transform="translate(0.000000,490.000000) scale(0.100000,-0.100000)"
fill="#000000" stroke="none">
<path d="M31 4883 c3 -26 -12 -92 -22 -99 -5 -3 -9 -45 -9 -95 l0 -89 40 0
c28 0 40 4 40 14 0 8 11 17 24 20 14 3 28 15 31 26 4 13 15 20 30 20 13 0 30
3 38 6 8 3 21 -2 30 -10 20 -21 27 -20 27 2 0 30 42 62 82 62 20 0 38 -6 41
-12 2 -8 8 -9 13 -4 5 5 4 11 -3 13 -23 8 -14 19 37 43 28 13 50 27 50 31 0 4
42 7 93 6 98 -2 120 6 161 60 l17 23 -361 0 c-338 0 -361 -1 -359 -17z"/>
<path d="M2624 4884 c3 -9 9 -27 12 -40 3 -13 9 -24 13 -24 4 0 7 -22 7 -50
-1 -27 -4 -50 -8 -50 -5 0 -8 -6 -8 -14 0 -7 -18 -34 -40 -59 -22 -25 -40 -50
-40 -56 0 -6 -7 -11 -15 -11 -38 0 -44 -101 -14 -232 11 -51 11 -64 -5 -115
-16 -50 -30 -69 -100 -137 -71 -70 -103 -94 -214 -168 -14 -9 -28 -20 -31 -25
-10 -15 -60 -43 -75 -43 -8 0 -16 -3 -18 -7 -6 -16 -74 -43 -120 -49 -27 -4
-48 -11 -48 -15 0 -5 -54 -9 -120 -9 -73 0 -120 4 -120 10 0 6 -11 10 -24 10
-13 0 -49 13 -82 29 -32 17 -75 33 -96 36 -21 4 -40 10 -43 14 -2 5 -37 9 -77
10 -40 1 -75 7 -79 12 -3 6 -35 14 -70 19 -84 10 -119 20 -119 32 0 6 -14 8
-34 4 -22 -4 -48 -1 -70 8 -19 8 -36 12 -39 10 -3 -3 -33 2 -68 10 -35 9 -100
22 -144 31 -115 22 -119 23 -133 42 -12 17 -14 17 -23 1 -8 -15 -12 -15 -49 0
-26 10 -39 20 -36 29 4 8 -2 13 -17 13 -18 0 -19 -2 -7 -10 11 -7 0 -10 -38
-10 -34 0 -51 4 -47 10 4 6 11 7 17 4 7 -5 8 -2 3 6 -6 9 -29 11 -86 8 -63 -4
-79 -2 -79 9 0 8 -6 13 -12 12 -18 -3 -68 12 -68 20 0 3 -20 5 -45 3 -30 -3
-54 1 -70 12 -13 9 -29 16 -35 16 -7 0 -10 -656 -10 -2090 l0 -2090 160 0
c100 0 160 4 160 10 0 6 13 10 29 10 15 0 41 4 57 9 16 5 65 16 109 25 190 39
500 100 619 122 143 26 209 40 276 60 25 8 98 27 163 43 79 20 126 37 146 54
58 48 132 45 349 -14 79 -21 325 -126 330 -140 2 -5 14 -6 26 -3 17 4 22 0 23
-17 1 -11 9 -29 17 -38 9 -10 16 -22 16 -27 0 -5 10 -28 22 -51 l23 -43 167 0
c171 0 173 1 169 37 -2 16 36 35 57 29 9 -3 31 -19 49 -36 26 -24 40 -30 75
-29 24 1 35 3 26 6 -20 5 -33 44 -24 68 3 10 19 15 45 15 48 0 76 23 61 50
-11 21 -67 32 -94 18 -11 -6 -44 -8 -75 -5 -31 3 -111 0 -178 -7 -67 -6 -131
-8 -143 -4 -13 5 -39 3 -61 -4 -46 -13 -95 2 -85 27 4 11 -2 15 -24 15 -18 0
-29 5 -27 12 5 24 59 68 85 70 15 1 39 15 54 31 15 16 32 26 38 22 5 -3 13 1
16 9 4 11 19 16 45 16 21 0 39 5 39 10 0 6 9 10 19 10 11 0 26 6 33 13 23 21
92 63 128 77 19 7 39 17 44 22 6 4 22 8 36 8 14 0 30 4 36 9 5 6 32 12 60 15
68 7 104 16 104 27 0 5 11 9 24 9 12 0 45 12 72 26 27 15 72 32 99 40 28 7 97
28 155 47 101 33 177 56 325 98 39 11 84 26 100 34 17 8 54 19 83 26 28 6 55
15 58 20 3 5 13 9 23 9 10 0 32 7 47 15 41 21 92 29 117 18 31 -14 47 -5 47
25 0 15 4 32 8 38 13 20 47 32 68 24 43 -16 125 -110 155 -175 25 -57 29 -76
29 -158 0 -92 0 -94 41 -156 37 -57 41 -71 51 -160 l10 -97 -31 -62 c-36 -72
-61 -98 -118 -124 -24 -10 -43 -21 -43 -23 0 -3 986 -5 2190 -5 1349 0 2190 4
2190 9 0 5 -12 11 -27 13 -26 3 -28 7 -33 58 -7 77 -13 84 -68 76 -25 -3 -49
-12 -53 -18 -5 -8 -35 -11 -93 -9 l-85 2 -21 -40 c-26 -53 -61 -76 -97 -65
-16 4 -33 6 -40 5 -14 -2 -43 38 -43 61 0 26 -38 47 -74 41 -29 -5 -31 -3 -31
26 0 18 7 36 15 41 13 8 94 22 125 22 6 -1 13 5 17 13 5 7 32 16 60 20 68 8
200 32 250 45 21 6 57 15 81 20 66 17 237 82 237 92 0 4 7 8 15 8 17 0 35 30
35 59 0 12 5 21 10 21 6 0 10 7 10 15 0 43 148 -35 198 -104 34 -46 66 -152
58 -187 -9 -33 -40 -59 -108 -91 -69 -31 -78 -52 -46 -99 l23 -34 546 0 c542
0 546 0 565 21 23 26 26 113 5 152 -11 21 -12 35 -3 64 6 21 14 55 17 75 3 21
17 50 30 64 14 15 25 31 25 35 0 5 9 9 21 9 30 0 136 115 142 154 6 41 3 47
-37 74 -29 20 -41 22 -84 16 -38 -5 -63 -2 -93 10 -24 10 -56 16 -73 15 -17
-1 -41 1 -53 5 -12 4 -31 2 -42 -3 -13 -7 -22 -8 -26 -1 -3 5 -15 10 -26 10
-28 0 -23 29 6 36 17 4 32 1 44 -10 16 -15 19 -15 31 -1 7 8 9 15 4 15 -5 1 3
8 19 16 15 8 27 19 27 24 0 6 9 10 20 10 11 0 34 8 52 18 34 19 109 40 164 45
41 4 65 23 99 77 32 51 57 72 97 81 22 5 34 0 59 -24 30 -28 31 -32 27 -92 -5
-62 -32 -127 -71 -170 -10 -11 -20 -30 -23 -42 -4 -13 -10 -23 -14 -23 -22 0
-36 -244 -16 -288 11 -26 72 -56 95 -46 9 3 79 14 156 24 77 10 175 24 218 31
l77 11 0 875 0 874 -30 11 c-17 5 -30 14 -30 19 0 5 -6 9 -13 9 -8 0 -22 15
-32 33 -15 29 -16 37 -4 60 8 14 34 37 59 50 l45 24 3 206 2 207 -72 1 c-120
2 -273 15 -315 28 -15 5 -54 15 -87 22 -32 7 -60 19 -63 26 -10 25 12 88 34
98 12 5 23 18 25 29 2 12 16 24 35 30 41 14 72 54 52 67 -11 6 -7 15 16 40 21
22 26 33 17 36 -10 4 -10 8 -1 19 6 8 17 14 23 14 6 0 22 16 35 35 13 19 32
35 42 35 12 0 19 7 19 20 0 13 -7 20 -20 20 -10 0 -24 9 -30 20 -8 16 -21 20
-60 20 -28 0 -50 4 -50 8 0 4 -36 16 -80 26 -64 14 -84 15 -95 6 -12 -10 -16
-9 -21 4 -4 10 -18 16 -35 16 -22 0 -29 5 -29 20 0 11 5 20 10 20 6 0 10 9 10
20 0 25 -15 26 -24 3 -6 -14 -9 -15 -15 -4 -6 9 2 24 25 46 19 19 34 38 34 43
0 5 8 12 18 14 10 3 18 14 19 25 1 19 -1 20 -38 9 -22 -7 -43 -16 -47 -22 -7
-9 -43 -28 -74 -37 -9 -3 -37 1 -64 9 -26 8 -90 14 -143 15 -53 0 -90 3 -83 6
6 2 12 10 12 17 0 23 -25 66 -41 71 -24 8 -66 57 -53 62 7 2 10 12 7 22 -3 14
3 20 26 24 18 4 31 13 31 22 0 9 9 15 23 16 16 0 8 7 -28 24 -27 13 -58 21
-67 19 -9 -3 -31 2 -47 10 -17 9 -49 16 -73 16 -28 0 -38 3 -30 9 10 6 7 10
-13 15 -25 6 -83 41 -95 58 -3 3 -34 8 -70 11 -36 2 -66 9 -68 15 -2 7 -21 12
-43 12 -29 0 -47 7 -65 25 -16 17 -36 25 -58 25 -37 0 -56 28 -56 84 0 40 27
67 90 92 25 10 47 21 50 24 3 4 39 19 80 35 41 16 86 34 100 42 14 7 32 13 40
13 8 0 28 7 44 15 15 8 34 15 41 15 7 0 15 3 17 8 5 11 76 43 143 63 85 27
151 24 220 -7 55 -25 161 -103 178 -130 4 -7 13 -19 20 -26 7 -7 35 -47 62
-88 27 -41 51 -77 53 -80 2 -2 12 1 22 8 11 7 38 12 60 12 22 0 40 4 40 9 0
12 86 42 148 50 30 4 57 12 60 18 4 6 23 15 42 21 19 6 73 27 120 47 47 20 91
39 98 42 9 4 12 75 12 309 l0 304 -371 0 -372 0 -37 -32 c-53 -47 -79 -68 -85
-68 -3 0 -22 -7 -43 -16 -20 -10 -46 -19 -56 -21 -11 -2 -24 -7 -30 -12 -23
-18 -222 -51 -396 -66 -36 -3 -202 -6 -370 -7 l-305 -2 -55 -29 c-30 -16 -78
-46 -106 -68 -49 -38 -125 -73 -254 -119 -58 -20 -76 -22 -214 -17 -102 3
-164 10 -191 20 -22 9 -49 19 -60 23 -20 8 -61 13 -101 14 -12 0 -27 7 -34 15
-7 8 -22 15 -34 15 -31 0 -50 16 -43 34 5 11 1 16 -13 16 -23 0 -24 3 -8 47
12 33 41 45 51 21 4 -10 6 -10 6 0 1 6 11 12 24 12 13 0 29 6 36 13 11 10 14
9 18 -1 3 -8 11 -4 25 13 23 29 31 31 52 9 12 -12 23 -13 51 -5 21 5 35 6 35
0 0 -12 47 -12 55 1 3 6 1 10 -5 10 -6 0 -8 5 -5 11 4 5 19 7 34 4 26 -5 28
-4 27 26 -1 26 5 35 31 50 17 10 48 21 67 25 20 3 36 12 36 19 0 17 69 29 119
20 32 -5 43 -2 67 19 l29 25 -696 1 -695 0 -22 -45 c-12 -25 -34 -51 -51 -59
-28 -15 -29 -16 -15 -53 23 -66 18 -113 -22 -179 -19 -32 -45 -68 -57 -79
-100 -91 -217 -145 -381 -175 -59 -11 -231 3 -252 21 -11 9 -18 9 -26 1 -16
-16 -69 -15 -93 2 -12 7 -61 16 -115 19 -52 4 -108 9 -125 12 -16 3 -48 6 -70
6 -22 1 -45 5 -51 10 -7 6 -42 10 -79 10 -47 1 -68 5 -72 15 -3 8 -11 14 -18
14 -7 0 -15 6 -18 13 -3 9 -7 9 -20 -2 -13 -10 -20 -11 -31 -2 -9 8 -28 10
-49 6 -24 -5 -38 -2 -50 9 -9 9 -31 19 -49 23 -18 3 -42 15 -53 25 -11 11 -27
17 -35 15 -28 -8 -35 -9 -52 -8 -11 1 -18 9 -18 20 0 16 -7 19 -49 18 -54 -2
-71 7 -53 25 21 21 14 48 -11 48 -13 0 -31 8 -40 18 -20 22 -21 32 -6 32 7 0
18 8 25 18 13 16 13 16 14 0 0 -12 8 -18 25 -18 16 0 25 -6 25 -15 0 -8 7 -15
15 -15 8 0 15 5 15 10 0 21 38 52 62 49 12 -1 31 2 42 6 11 5 26 3 37 -4 15
-9 19 -8 19 3 0 8 8 17 18 20 44 12 102 17 117 9 10 -6 54 -4 113 3 53 7 99
11 102 9 4 -2 29 -7 56 -10 27 -4 76 -10 109 -14 84 -11 181 -3 243 20 30 10
57 17 62 14 4 -3 20 2 36 9 15 8 44 18 66 21 21 4 38 11 38 17 0 9 -7 9 -67
-8 -18 -5 -25 0 -34 20 -12 26 -70 50 -107 44 -9 -2 -18 4 -18 12 -1 8 -2 20
-3 27 -1 17 -192 17 -203 0 -6 -9 -10 -9 -20 1 -9 9 -135 12 -551 12 l-539 0
6 -43 c10 -62 -27 -220 -59 -257 -7 -8 -16 -25 -19 -37 -4 -13 -12 -23 -17
-23 -8 0 -43 -31 -133 -115 -68 -65 -475 -258 -592 -281 -21 -5 -41 -9 -44 -9
-3 -1 -21 -5 -40 -9 -35 -7 -54 -8 -305 -23 -269 -16 -694 0 -752 29 -20 10
-36 12 -47 6 -10 -6 -26 -3 -45 7 -19 9 -57 15 -101 15 -40 0 -70 4 -70 10 0
6 -8 10 -18 10 -9 0 -23 9 -30 20 -7 11 -20 20 -30 20 -29 0 -82 38 -82 60 0
11 4 20 9 20 5 0 13 9 16 20 3 11 13 20 21 20 17 0 17 7 3 50 l-12 33 -18 -24
-19 -24 0 58 c0 44 5 63 20 80 19 19 31 21 136 22 111 1 117 2 135 26 24 30
21 50 -10 65 -13 7 -27 17 -30 23 -4 5 -25 13 -46 16 -36 6 -44 3 -73 -25 -36
-34 -52 -35 -67 -2 -5 12 -15 22 -21 22 -7 0 -16 17 -21 38 -6 26 -15 38 -30
40 -15 2 -22 13 -26 39 -8 44 15 68 77 84 61 15 66 17 66 29 0 6 -40 10 -106
10 -93 0 -105 -2 -100 -16z m6121 -721 c27 -9 54 -21 61 -27 6 -6 31 -27 56
-46 98 -75 141 -169 142 -315 1 -99 1 -100 29 -113 48 -23 61 -54 54 -129 -4
-36 -14 -77 -22 -90 -24 -36 -73 -80 -105 -93 -40 -16 -56 -60 -41 -109 17
-60 13 -95 -19 -156 -29 -55 -30 -59 -14 -83 9 -13 24 -27 34 -29 10 -3 31
-24 47 -46 15 -23 42 -55 58 -72 36 -37 75 -144 75 -205 0 -60 -17 -90 -65
-117 -39 -21 -40 -24 -46 -86 -10 -114 -104 -219 -273 -307 -84 -43 -134 -56
-276 -70 -108 -11 -584 -15 -599 -6 -11 7 -203 36 -240 36 -30 0 -131 55 -131
71 0 5 -7 9 -15 9 -9 0 -15 9 -15 24 0 34 54 73 110 82 25 4 47 10 50 13 5 6
84 30 174 52 22 5 43 12 47 14 11 7 -14 55 -29 55 -9 0 -10 11 -6 40 5 33 4
40 -10 40 -9 0 -16 5 -16 10 0 6 -22 10 -49 10 -28 0 -53 5 -56 10 -10 16 -35
12 -43 -7 -8 -21 -21 -24 -130 -26 l-84 -2 7 30 c4 17 7 55 8 85 l2 55 41 -3
c29 -3 59 4 98 22 31 14 69 26 85 26 16 0 44 13 66 30 25 20 49 30 72 30 19 0
43 5 53 10 11 6 45 12 77 15 60 4 146 17 243 34 48 8 111 27 160 48 33 13 -63
22 -265 23 -646 4 -791 15 -860 65 -16 12 -39 22 -50 22 -11 -1 -37 3 -57 7
-31 6 -38 4 -38 -9 0 -8 -9 -15 -20 -15 -11 0 -20 6 -20 14 0 15 -44 25 -260
55 -267 38 -489 61 -605 62 -93 1 -149 11 -153 28 -2 9 3 11 15 6 39 -16 51
-16 67 1 21 20 7 34 -36 34 -30 0 -37 17 -16 38 9 9 9 12 0 12 -7 0 -12 -4
-12 -10 0 -5 -11 -10 -24 -10 -13 0 -26 -5 -28 -12 -3 -8 -6 -9 -11 -1 -8 12
20 46 46 56 27 10 10 90 -24 107 -10 6 -19 15 -19 20 0 15 28 12 55 -6 35 -23
75 -11 75 21 0 30 8 31 49 8 25 -15 34 -16 50 -6 14 9 28 10 45 3 45 -17 40
37 -8 71 -4 4 -4 9 1 12 5 3 24 -8 42 -23 18 -16 48 -32 67 -36 18 -3 36 -14
39 -23 3 -9 13 -26 23 -39 17 -22 18 -22 58 -6 33 13 40 20 37 35 -4 15 0 19
22 19 31 0 85 -29 85 -46 0 -25 42 -49 87 -49 41 0 45 -2 50 -28 6 -30 43 -59
43 -33 0 17 27 30 56 27 11 -1 27 5 34 14 11 13 10 18 -6 29 -16 12 -134 33
-156 28 -5 -1 -8 3 -8 9 0 25 -27 38 -60 29 -50 -14 -68 10 -33 45 11 12 14
22 7 32 -9 15 -76 43 -105 43 -34 0 -69 27 -93 73 -20 39 -25 44 -31 29 -11
-38 -60 -35 -75 4 -6 14 -21 26 -37 30 -15 4 -40 15 -55 25 -14 11 -33 16 -42
13 -10 -4 -18 0 -22 10 -4 10 -18 16 -36 16 -23 0 -29 4 -24 15 4 11 -6 20
-34 31 -22 9 -40 22 -40 30 0 8 -4 14 -10 14 -5 0 -10 13 -10 29 0 17 5 33 10
36 6 3 10 1 10 -4 0 -20 30 -11 46 14 9 14 22 24 28 23 6 -1 34 3 61 10 45 10
158 25 287 36 26 3 52 7 58 11 5 3 58 12 117 20 172 22 247 36 257 46 46 45
273 -64 378 -181 65 -73 71 -82 112 -170 l16 -35 -3 35 c-2 27 2 35 18 38 11
3 26 13 33 23 7 11 21 19 31 19 27 0 47 28 33 42 -7 7 -12 26 -12 43 0 24 6
35 25 43 14 6 25 18 25 26 0 14 87 46 123 46 9 0 22 6 29 13 19 19 66 35 126
42 28 4 52 11 52 15 0 4 24 11 53 15 28 3 84 13 122 21 110 24 146 32 210 45
33 6 119 27 190 46 198 53 234 56 330 26z m-4229 -464 c3 -5 15 -9 27 -9 36 0
78 -61 91 -133 6 -31 3 -43 -21 -73 -25 -34 -26 -38 -12 -63 10 -17 31 -31 64
-42 51 -17 74 -15 42 2 -27 16 -20 34 19 48 34 12 38 12 59 -10 12 -13 38 -38
57 -55 26 -24 41 -54 65 -127 17 -53 30 -104 28 -114 -2 -10 -7 -35 -10 -57
-6 -38 -63 -106 -89 -106 -6 0 -33 -12 -59 -26 -27 -14 -58 -24 -70 -24 -37 3
-46 1 -66 -21 -15 -17 -28 -20 -68 -17 -28 2 -49 8 -49 16 -1 6 -2 17 -3 22 0
6 -11 14 -23 19 -19 7 -28 3 -48 -21 -16 -18 -36 -30 -55 -31 -21 -1 -34 -10
-43 -28 -7 -15 -24 -31 -38 -38 -31 -14 -87 -15 -79 -1 3 6 2 10 -3 10 -5 0
-14 11 -20 24 -8 19 -20 25 -49 28 -32 3 -40 8 -48 33 -14 40 -37 75 -51 75
-14 0 -32 36 -39 76 -4 25 -1 33 14 37 22 5 32 -11 24 -41 -4 -16 0 -21 13
-20 23 1 129 -47 139 -61 3 -6 19 -11 34 -11 32 0 91 -27 91 -41 0 -13 36 -11
75 5 23 10 40 27 52 52 12 25 27 40 43 44 24 6 25 9 22 76 -1 38 -8 85 -16
104 -18 48 -13 94 15 129 27 35 53 36 57 3 2 -12 13 -27 25 -33 11 -7 37 -27
56 -47 43 -42 80 -67 87 -59 9 8 -25 67 -39 67 -7 0 -35 25 -62 55 -28 30 -56
55 -63 55 -7 0 -18 11 -24 25 -15 33 -33 32 -154 -5 -55 -17 -116 -32 -136
-33 -21 -1 -38 -5 -38 -9 0 -19 -35 -5 -63 24 -27 28 -33 30 -58 21 -15 -6
-46 -9 -70 -7 -33 3 -51 -2 -79 -20 -19 -14 -59 -29 -89 -34 -49 -9 -64 -7
-124 14 -22 8 -49 71 -41 96 3 10 13 18 23 18 10 0 35 13 56 30 20 16 41 28
45 25 4 -3 13 2 20 10 7 8 23 15 36 15 13 0 34 11 48 25 14 14 34 25 45 25 10
0 45 13 77 29 53 26 66 29 126 24 51 -4 73 -2 91 10 13 8 35 13 49 10 20 -4
29 0 37 16 14 25 31 28 31 5 0 -14 2 -14 16 -3 41 34 85 42 100 18z m5425 -20
c16 -11 29 -29 29 -40 0 -13 7 -19 24 -19 24 0 41 -24 30 -41 -8 -14 15 -39
37 -39 28 0 23 -24 -8 -37 -50 -21 -73 -25 -104 -18 -24 5 -30 11 -26 26 3 10
1 17 -3 14 -5 -3 -21 8 -37 25 -30 32 -42 36 -71 21 -50 -25 -73 -32 -143 -39
-42 -4 -81 -6 -88 -4 -22 7 -11 42 19 57 17 9 30 19 30 24 0 4 26 21 58 38 41
21 73 30 117 32 33 2 67 7 75 12 22 12 29 11 61 -12z m-8114 -314 c88 -45 184
-131 212 -188 29 -60 28 -134 -3 -196 l-25 -48 20 -40 c21 -43 71 -93 92 -93
29 0 143 -102 168 -152 11 -21 22 -65 25 -97 l7 -60 -56 -53 c-39 -37 -70 -57
-102 -66 -25 -6 -53 -20 -63 -29 -46 -45 -59 -46 -181 -28 -13 2 -87 5 -165 6
-81 0 -146 5 -154 11 -7 6 -15 8 -18 5 -4 -3 -13 0 -21 8 -9 9 -34 15 -64 15
-28 0 -63 7 -79 15 -16 8 -36 12 -44 9 -11 -4 -16 -1 -16 10 0 13 -6 15 -27
10 -16 -4 -36 -11 -45 -15 -9 -5 -51 -9 -92 -9 -69 0 -76 2 -76 20 0 11 -7 20
-15 20 -8 0 -15 5 -15 10 0 6 -11 16 -25 22 -14 6 -25 19 -25 30 0 15 -8 18
-45 18 -25 0 -45 -4 -45 -10 0 -5 -9 -14 -19 -20 -16 -8 -22 -5 -39 21 -12 19
-22 27 -26 20 -25 -40 -59 47 -35 91 10 18 7 25 -21 49 -35 31 -43 56 -43 142
-1 77 8 84 81 63 66 -18 112 -21 112 -6 0 6 7 10 15 10 11 0 15 -11 15 -40 0
-23 5 -46 10 -53 6 -7 17 -21 25 -32 10 -15 25 -20 64 -20 41 0 55 5 80 29 17
17 31 38 31 49 0 10 4 26 9 36 6 9 12 43 15 75 5 52 4 58 -14 63 -11 3 -20 11
-20 19 0 7 -6 16 -12 21 -14 8 -120 14 -232 13 -68 -1 -162 16 -181 32 -5 4
-17 8 -26 8 -10 0 -19 4 -21 10 -1 5 -17 12 -35 16 -25 5 -32 2 -36 -12 -5
-17 -6 -16 -3 1 1 11 -9 30 -24 42 l-25 23 23 0 c22 0 23 4 21 49 -3 45 0 52
35 85 23 21 53 38 75 42 20 4 50 13 67 20 16 7 81 20 143 28 62 9 118 19 123
22 6 4 90 11 187 16 97 5 212 12 256 16 113 10 214 -8 302 -53z m3945 8 c21
-19 23 -39 6 -47 -10 -3 -9 -8 2 -18 12 -9 15 -26 12 -61 -6 -70 10 -78 42
-23 15 25 31 46 35 46 23 0 32 -40 22 -102 -2 -12 -32 -38 -44 -38 -8 0 -7 3
2 9 7 5 9 11 4 14 -5 3 -15 2 -22 -3 -8 -4 -30 -3 -50 2 -48 14 -55 18 -41 32
8 8 13 7 20 -4 8 -12 10 -11 10 5 0 11 -9 28 -20 38 -21 17 -25 56 -10 92 5
13 3 26 -7 37 -29 32 6 51 39 21z m4751 -75 c75 -53 109 -132 103 -241 -5
-102 -16 -157 -31 -157 -7 0 -15 -7 -19 -15 -3 -8 -14 -15 -25 -15 -11 0 -33
-11 -49 -25 -36 -30 -53 -31 -77 -5 -10 11 -20 18 -23 15 -2 -2 -17 2 -33 10
-41 21 -57 19 -91 -15 -23 -24 -38 -30 -72 -30 -36 0 -45 4 -54 26 -9 19 -17
24 -32 19 -11 -3 -25 -3 -31 0 -5 4 -36 9 -67 11 -31 2 -66 8 -77 13 -11 5
-50 14 -87 21 -69 12 -91 8 -118 -24 -14 -18 -119 -22 -150 -6 -20 11 -33 50
-24 75 14 36 113 56 169 35 21 -8 33 -5 63 13 43 27 180 74 237 82 140 20 247
71 312 150 25 30 113 85 136 85 5 0 23 -10 40 -22z m-187 -528 c15 0 24 -6 24
-15 0 -8 -4 -15 -10 -15 -5 0 -10 -12 -10 -27 0 -25 -19 -72 -20 -49 0 5 -15
-8 -34 -28 -19 -20 -42 -36 -50 -36 -9 0 -16 -5 -16 -11 0 -5 -13 -15 -30 -20
-16 -6 -30 -15 -30 -20 0 -5 -8 -9 -17 -9 -10 0 -49 -7 -86 -16 -58 -15 -76
-15 -122 -4 -76 18 -80 22 -60 53 11 18 29 28 53 32 90 14 153 29 158 36 3 5
13 9 22 9 9 0 26 13 37 29 11 17 27 32 37 34 10 3 22 17 28 31 18 49 31 56 69
40 18 -8 44 -14 57 -14z m-9970 -91 c60 -25 72 -45 64 -109 -4 -38 -8 -45 -27
-45 -11 0 -25 -3 -29 -8 -4 -4 -18 3 -31 15 -14 13 -23 17 -23 9 0 -11 -3 -11
-15 -1 -8 7 -15 23 -15 36 0 12 -5 35 -10 50 -6 15 -7 30 -2 33 5 3 11 14 15
24 8 22 11 21 73 -4z m5608 -55 c9 -3 16 -12 16 -19 0 -8 5 -17 10 -20 6 -4 9
-1 8 6 -3 13 31 26 71 28 20 1 22 -3 17 -23 -8 -34 16 -53 50 -37 21 9 30 9
42 -1 14 -11 15 -10 8 7 -5 11 -11 31 -14 44 -5 24 -5 24 54 16 32 -4 136 -9
229 -10 188 -2 292 -11 344 -27 29 -9 36 -8 48 8 10 14 24 18 56 16 72 -4 140
-24 166 -48 14 -13 29 -24 33 -24 5 0 8 -7 8 -15 0 -8 4 -15 9 -15 18 0 -32
-179 -64 -225 -28 -41 -43 -172 -26 -218 15 -39 14 -81 -4 -124 -19 -46 -76
-122 -91 -123 -6 0 -22 -8 -35 -18 -13 -11 -51 -27 -84 -37 -33 -10 -80 -27
-104 -37 -30 -14 -57 -18 -85 -15 -35 5 -279 41 -341 51 -11 1 -29 7 -40 13
-11 6 -39 14 -62 18 -24 4 -46 11 -49 16 -4 6 -11 6 -19 -1 -10 -8 -15 -8 -20
0 -8 13 -90 50 -110 50 -8 0 -26 12 -42 26 -25 23 -28 24 -34 7 -4 -10 -8 -13
-8 -6 -1 6 -9 14 -18 16 -14 4 -12 5 5 6 12 1 22 7 22 16 0 11 -11 15 -39 15
-23 0 -41 5 -44 13 -3 10 -11 10 -39 0 -43 -16 -68 -16 -68 -2 0 6 7 9 15 5 9
-3 15 0 15 8 0 7 16 18 36 24 29 9 41 8 57 -3 17 -12 23 -11 47 7 23 16 32 18
49 9 20 -11 22 -10 20 5 0 4 5 10 11 14 13 8 -44 80 -64 80 -13 0 -52 67 -44
75 2 3 29 7 59 9 30 2 55 5 57 6 1 2 6 3 11 4 5 0 13 4 16 8 4 4 16 3 26 -2
56 -31 431 -43 451 -15 13 17 9 27 -7 21 -11 -4 -17 3 -22 25 -6 29 -7 30 -47
25 -22 -3 -35 -3 -28 0 6 3 9 11 6 16 -4 7 -2 8 4 4 11 -7 35 33 37 60 0 6 7
19 14 28 11 13 11 20 3 28 -15 15 -43 -19 -36 -44 6 -22 -12 -32 -63 -34 -43
-1 -55 8 -30 23 19 12 40 70 33 90 -5 11 -9 14 -14 6 -12 -20 -76 -20 -70 0 3
6 22 14 44 17 32 4 40 9 42 29 3 20 0 23 -17 18 -15 -4 -21 0 -21 12 0 10 -11
24 -25 31 -20 11 -28 10 -49 -3 -23 -16 -40 -59 -34 -88 2 -9 -8 -14 -32 -15
-19 -1 -56 -3 -83 -5 -51 -2 -70 6 -47 22 10 7 11 12 3 15 -6 3 -25 18 -42 35
-33 31 -81 40 -81 14 0 -8 -7 -15 -15 -15 -23 0 -18 -30 8 -40 12 -5 16 -9 10
-9 -7 -1 -13 -9 -13 -19 0 -10 -5 -23 -12 -30 -13 -13 -48 -16 -49 -4 0 4 -2
15 -4 25 -2 10 3 17 11 17 10 0 13 7 8 26 -4 16 -2 29 6 34 6 4 12 24 12 44 0
27 4 36 13 32 9 -3 12 0 8 10 -13 35 18 54 61 38z m-1076 -199 c12 -3 22 -12
22 -20 0 -9 10 -19 23 -24 35 -14 95 -74 111 -111 22 -54 30 -154 15 -182 -7
-12 -13 -26 -14 -30 0 -3 -4 -10 -9 -15 -5 -5 -7 2 -3 15 4 18 2 22 -11 20 -9
-2 -19 -14 -22 -27 -7 -31 -69 -55 -106 -41 -24 9 -25 8 -22 -17 2 -17 9 -28
18 -28 21 0 64 -46 80 -84 12 -29 15 -85 10 -160 -2 -26 -74 -131 -90 -131 -9
0 -42 -25 -75 -57 -7 -6 -28 -15 -48 -18 -20 -4 -38 -14 -42 -23 -5 -13 -8
-14 -14 -3 -6 10 -15 8 -42 -8 -19 -12 -44 -21 -55 -21 -12 0 -24 -6 -27 -14
-3 -7 -23 -17 -44 -20 -21 -4 -45 -9 -54 -12 -9 -2 -21 6 -29 21 -7 14 -19 25
-27 25 -23 0 -14 30 12 42 14 6 25 15 25 20 0 22 85 97 134 119 33 14 59 32
65 46 6 13 17 23 24 23 27 0 157 124 157 150 0 25 -43 44 -81 36 -34 -7 -49
10 -49 55 0 47 -15 88 -35 95 -8 4 -29 1 -46 -7 -28 -11 -31 -16 -26 -46 9
-55 2 -63 -41 -47 -20 7 -45 13 -54 14 -9 0 -21 6 -25 14 -9 16 -86 56 -107
56 -18 0 -41 -38 -38 -61 2 -8 -6 -23 -16 -33 -17 -14 -22 -15 -34 -3 -19 20
-115 50 -139 44 -10 -3 -42 4 -69 16 l-49 21 -25 -27 c-33 -36 -48 -34 -85 9
-35 40 -57 39 -90 -2 -10 -13 -25 -24 -32 -24 -17 1 -59 35 -59 47 0 14 80 50
129 58 24 4 63 20 87 35 24 15 72 33 106 39 35 7 97 26 138 43 41 17 95 36
120 43 113 31 224 85 302 149 58 48 152 63 256 41z m5488 -220 c54 -25 108
-79 130 -132 13 -31 13 -40 -6 -118 -1 -5 -2 -29 -1 -52 1 -31 5 -43 16 -43 8
0 15 -6 15 -13 0 -8 8 -21 18 -31 22 -19 45 -88 36 -109 -3 -9 -12 -18 -20
-21 -8 -3 -14 -11 -14 -19 0 -19 -118 -75 -173 -82 -93 -12 -112 14 -47 65 26
21 40 40 40 55 0 32 10 56 21 49 5 -2 17 0 28 5 15 9 18 17 12 38 -6 23 -13
29 -45 31 -40 3 -146 -25 -158 -42 -4 -6 -20 -6 -45 2 -21 7 -74 14 -118 16
-124 7 -337 26 -365 33 -14 3 -34 8 -45 10 -30 5 -74 58 -68 81 4 19 113 79
173 97 38 11 153 54 172 65 10 6 27 10 37 10 11 0 22 4 25 9 3 5 22 12 41 15
19 4 35 11 35 15 0 5 8 11 18 15 20 6 46 23 79 51 47 39 121 39 209 0z m-8551
-119 c44 -1 88 2 98 7 10 5 26 5 35 1 9 -4 22 -9 27 -9 30 -5 64 -26 70 -45 3
-11 10 -18 14 -16 4 3 8 -14 10 -37 1 -23 -1 -38 -5 -35 -4 4 -15 -4 -26 -17
-11 -14 -28 -25 -39 -25 -10 0 -19 -3 -19 -7 0 -5 -18 -8 -40 -8 -22 0 -40 3
-40 8 0 4 -16 7 -35 7 -19 0 -52 6 -72 14 -48 18 -41 18 -277 17 -122 -1 -203
3 -211 9 -7 5 -26 12 -43 14 -88 10 -79 86 13 121 40 15 61 15 540 1z m6972
-212 c90 -25 180 -60 203 -79 8 -7 25 -16 36 -19 22 -7 105 -97 135 -145 37
-61 61 -149 70 -251 5 -70 16 -128 33 -173 42 -114 23 -182 -79 -275 -38 -35
-81 -61 -152 -90 -128 -53 -99 -49 -413 -68 -25 -1 -87 -7 -139 -13 -51 -6
-97 -8 -102 -6 -4 3 -10 1 -14 -5 -12 -20 -43 -10 -54 18 -15 36 -10 81 13
114 14 21 25 27 51 26 34 -1 85 24 85 43 0 11 69 43 77 35 3 -3 16 6 30 19 17
15 23 27 17 36 -5 8 -9 19 -9 24 0 6 -21 12 -46 15 -49 6 -79 23 -79 45 0 21
-51 77 -66 71 -7 -3 -22 7 -32 21 -12 16 -30 27 -48 28 -61 4 -120 18 -149 35
-29 17 -83 35 -97 32 -4 -1 -24 5 -45 12 -64 23 -212 49 -238 42 -19 -5 -32 0
-53 19 -15 14 -33 25 -40 25 -26 0 -74 31 -68 45 3 8 1 17 -4 20 -6 4 -10 14
-10 23 1 31 37 61 85 72 26 6 55 15 65 20 10 5 33 11 51 14 19 2 48 9 64 16
17 6 73 23 125 36 52 14 111 31 132 39 20 8 91 28 157 45 67 17 133 38 149 46
15 7 36 14 48 14 11 0 42 14 70 31 59 39 118 66 141 66 10 0 55 -10 100 -23z
m-6707 -55 c25 -5 72 -13 105 -17 72 -9 79 -13 110 -62 15 -23 45 -49 76 -67
48 -25 55 -35 82 -98 41 -96 41 -190 0 -272 -24 -48 -36 -61 -83 -85 -30 -15
-60 -28 -67 -28 -19 0 -52 -31 -70 -63 -10 -21 -12 -41 -7 -70 11 -65 5 -128
-19 -175 -24 -48 -103 -125 -167 -162 -24 -14 -66 -40 -94 -59 -69 -46 -140
-76 -206 -89 -53 -10 -344 -8 -425 2 -22 3 -62 7 -89 10 -26 2 -51 8 -55 13
-3 5 -26 15 -51 22 -25 7 -56 20 -69 28 -16 11 -26 12 -30 4 -5 -8 -15 -7 -34
2 -22 10 -27 19 -27 50 0 35 2 37 30 37 30 0 41 14 18 23 -28 10 6 19 86 24
60 4 86 10 86 19 0 17 82 43 160 49 60 6 86 13 132 36 10 5 38 9 63 9 25 0 45
4 45 8 0 4 15 9 33 10 18 1 60 16 92 33 35 18 64 27 74 23 40 -17 117 -21 150
-8 18 8 44 14 57 14 12 0 26 5 29 11 4 5 18 14 30 19 21 8 23 14 18 47 -7 42
-31 82 -50 83 -7 0 -13 5 -13 10 0 18 -30 10 -58 -15 -15 -14 -35 -25 -45 -25
-10 0 -28 -5 -39 -11 -29 -15 -200 -22 -390 -15 -56 3 -81 0 -89 -10 -6 -8
-16 -14 -22 -14 -5 0 -15 -7 -22 -16 -8 -12 -20 -15 -39 -10 -15 4 -24 11 -21
16 3 6 -5 10 -19 10 -14 0 -28 5 -31 10 -3 6 -16 10 -28 10 -31 1 -99 44 -87
56 5 5 10 40 11 76 1 64 0 69 -37 112 -22 25 -45 45 -51 46 -7 0 -13 5 -13 11
0 12 -168 11 -176 -2 -3 -5 -14 -9 -24 -9 -10 0 -21 -9 -25 -20 -3 -11 -16
-27 -28 -37 -12 -10 -26 -31 -32 -47 -11 -32 -35 -47 -35 -22 0 15 -14 44 -33
70 -44 61 -50 66 -82 66 -19 0 -45 4 -59 10 -17 6 -35 6 -51 0 -16 -6 -36 -5
-62 4 -32 11 -39 19 -45 51 -9 41 3 65 32 65 9 0 28 8 41 18 29 21 92 44 134
48 16 1 66 -4 110 -13 65 -12 94 -13 160 -3 99 14 171 29 210 44 17 6 32 11
35 11 3 0 12 5 20 10 8 6 70 11 138 12 96 2 141 8 205 27 45 13 100 27 122 31
22 4 45 10 50 14 6 4 29 13 53 21 23 7 47 19 53 27 6 7 17 13 24 13 7 0 32 9
56 19 56 25 178 51 204 45 11 -3 40 -10 65 -15z m4715 -465 c51 -10 166 -95
213 -155 34 -45 45 -69 53 -120 10 -58 9 -70 -14 -133 -18 -49 -23 -75 -16
-87 5 -10 9 -38 9 -63 0 -25 9 -65 19 -88 36 -79 52 -147 45 -186 -12 -62 -33
-101 -64 -117 -41 -21 -53 -20 -40 5 7 12 7 33 1 60 -5 22 -9 43 -10 45 -1 3
-1 12 -1 20 0 8 -7 15 -15 15 -18 0 -19 -25 -4 -67 9 -27 6 -36 -20 -74 -48
-71 -91 -105 -146 -118 -27 -6 -79 -17 -114 -26 -57 -13 -67 -13 -81 0 -19 17
-40 20 -40 5 0 -5 -13 -10 -28 -10 -15 0 -33 -5 -39 -11 -20 -20 -66 -19 -85
1 -20 21 -24 75 -7 86 6 3 8 17 4 31 -9 39 3 65 24 53 16 -8 17 -6 11 28 -12
59 -34 115 -47 119 -13 5 -57 -34 -65 -57 -3 -11 -13 -8 -38 14 -38 31 -54 20
-20 -14 29 -29 16 -43 -20 -22 -20 11 -32 28 -36 49 -5 25 -12 32 -37 37 -33
7 -106 60 -96 70 3 3 23 -3 44 -14 39 -20 39 -20 72 0 19 11 39 20 44 20 6 0
19 10 29 22 l18 23 15 -36 c18 -44 60 -79 87 -72 11 3 20 7 20 10 0 8 -44 67
-58 78 -13 10 -27 95 -15 95 4 0 14 -6 22 -14 9 -8 28 -17 42 -21 21 -5 27 -2
32 14 3 14 13 21 30 21 23 0 25 -4 24 -40 -1 -22 -3 -40 -4 -40 -1 0 -13 4
-27 10 -37 14 -43 -6 -13 -38 13 -15 23 -32 20 -39 -2 -6 16 -31 41 -55 25
-23 46 -48 46 -56 0 -9 8 -8 33 5 17 9 35 16 40 15 13 -4 7 22 -11 49 -48 73
-57 85 -74 99 -16 13 -17 21 -8 44 5 15 8 32 5 37 -7 10 24 0 43 -14 9 -7 9
-13 1 -23 -12 -15 -4 -34 16 -34 13 0 25 21 25 43 0 7 -4 6 -10 -3 -6 -9 -10
-10 -10 -3 0 35 54 9 70 -33 7 -16 17 -24 34 -24 13 0 38 -8 55 -17 24 -14 33
-15 42 -6 10 10 8 18 -11 38 -22 24 -23 25 -5 45 22 25 13 50 -20 50 -24 0
-29 -9 -28 -47 1 -15 -13 -17 -22 -3 -3 6 -12 10 -20 10 -8 0 -25 11 -39 25
-24 24 -24 25 -6 35 26 14 63 13 79 -2 10 -11 16 -8 31 12 19 25 19 25 -3 33
-12 5 -31 4 -43 -2 -12 -5 -25 -7 -29 -3 -4 4 -21 7 -38 7 -29 0 -32 2 -29 30
1 17 -1 25 -5 19 -14 -19 -63 -25 -100 -13 -26 8 -32 14 -22 20 23 14 -3 45
-35 41 -17 -2 -24 1 -21 10 2 7 -7 21 -21 31 -30 22 -51 10 -56 -31 -4 -35
-22 -35 -26 1 -3 27 -17 37 -24 16 -3 -8 -10 -5 -22 6 -14 15 -21 16 -43 6
-20 -9 -24 -9 -20 2 2 7 -1 21 -9 31 -11 16 -18 17 -44 7 -25 -8 -38 -7 -59 4
-24 12 -30 12 -43 -2 -15 -14 -17 -13 -27 6 -7 11 -20 21 -31 21 -10 0 -22 5
-25 10 -3 6 -13 10 -21 10 -14 0 -13 -2 0 -16 9 -8 16 -18 16 -22 0 -3 -5 -1
-12 6 -7 7 -20 12 -30 12 -10 0 -22 10 -27 23 -21 55 -20 62 4 80 20 14 24 15
19 2 -3 -8 -2 -15 4 -15 5 0 12 9 15 21 3 12 10 18 17 14 7 -5 9 2 4 19 -4 16
-2 26 5 26 6 0 11 -11 11 -25 0 -14 5 -25 10 -25 6 0 10 4 10 9 0 5 8 8 17 7
9 -2 35 3 58 9 22 7 52 9 67 4 18 -4 33 -2 45 7 10 7 28 14 41 14 12 0 22 6
22 14 0 9 11 14 33 13 44 0 187 33 187 44 0 5 9 9 20 9 25 0 104 26 155 51 39
19 55 20 130 3z m3453 -97 c13 -7 30 -26 38 -42 15 -28 14 -30 -12 -50 -54
-39 -127 -64 -190 -65 -99 0 -106 36 -22 109 61 53 140 73 186 48z m-2178
-319 c20 -23 18 -56 -4 -71 -7 -5 -3 -14 14 -27 36 -27 54 -30 89 -12 24 11
35 12 43 4 8 -8 15 -8 24 -1 20 16 37 1 19 -17 -8 -9 -15 -24 -15 -33 0 -30
-22 -40 -80 -39 -30 1 -74 -1 -97 -5 -37 -5 -45 -3 -54 14 -6 12 -8 32 -5 45
4 14 0 45 -9 70 -20 60 -20 63 18 79 41 18 36 19 57 -7z m-1960 -353 c0 -9 7
-18 15 -21 9 -4 14 -17 12 -37 -1 -24 2 -32 18 -35 53 -9 85 -48 55 -67 -6 -4
-4 -16 6 -31 9 -13 14 -33 11 -44 -3 -13 0 -20 9 -20 27 0 -27 -41 -62 -47
-30 -5 -34 -3 -34 15 0 11 5 24 10 27 6 3 10 15 10 25 0 13 5 17 14 14 11 -4
13 0 9 15 -3 11 -9 19 -13 16 -12 -7 -27 16 -35 53 -3 17 -19 45 -35 60 -24
25 -35 55 -31 85 2 14 41 7 41 -8z"/>
<path d="M7350 3542 c0 -34 5 -44 29 -62 39 -27 46 -53 25 -85 -12 -19 -14
-29 -6 -37 15 -15 41 -3 40 19 -1 10 15 42 35 72 21 29 37 57 37 62 0 17 19 9
53 -21 l34 -30 19 21 c18 20 18 22 1 34 -9 6 -17 17 -17 22 0 9 -34 16 -135
27 -16 2 -49 7 -72 11 l-43 8 0 -41z"/>
<path d="M7305 3234 c-4 -16 -10 -40 -15 -54 -5 -14 -11 -43 -15 -64 -5 -33
-4 -38 7 -29 7 6 29 15 48 21 19 5 34 14 33 21 -2 6 11 11 32 11 19 0 37 0 40
0 3 1 24 7 47 16 23 8 67 17 97 19 31 3 67 7 81 10 74 17 176 32 183 28 15 -9
75 7 81 22 4 12 -5 15 -49 15 -44 0 -55 -3 -55 -16 0 -12 -6 -15 -22 -10 -45
13 -154 30 -193 29 -22 0 -82 -1 -134 -2 -52 -1 -109 1 -127 5 -30 6 -34 4
-39 -22z"/>
<path d="M6843 2299 c4 -27 2 -38 -3 -28 -16 24 -41 -10 -32 -43 4 -15 10 -28
15 -28 4 0 14 0 22 0 8 0 15 -7 15 -16 0 -15 21 -15 81 2 18 5 59 73 59 98 0
20 -1 20 -36 2 -20 -11 -33 -12 -46 -5 -11 6 -26 8 -34 5 -11 -4 -14 -1 -10
12 4 11 -2 22 -16 31 -20 13 -21 12 -15 -30z"/>
<path d="M8793 1113 c-67 -4 -73 -6 -74 -26 -4 -76 10 -91 80 -82 58 7 111 38
111 65 0 16 -31 52 -41 48 -2 -1 -37 -4 -76 -5z"/>
</g>
</svg>
